<svg xmlns="http://www.w3.org/2000/svg" xmlns:xlink="http://www.w3.org/1999/xlink" width="322" height="469" viewBox="0 0 322 469">
  <defs>
    <path id="path-1" fill-rule="evenodd" d="M43 30h79c7.17489532 0 13 5.82510468 13 13v79c0 7.17489532-5.82510468 13-13 13H43c-7.17489532 0-13-5.82510468-13-13V43c0-7.17489532 5.82510468-13 13-13z"/>
    <mask id="mask-2" x="0" y="0" maskContentUnits="userSpaceOnUse" maskUnits="userSpaceOnUse">
      <rect width="322" height="469" x="0" y="0" fill="white"/>
      <use fill="black" xlink:href="#path-1"/>
    </mask>
    <path id="path-3" fill-rule="evenodd" d="M261 261h28c7.17489532 0 13 5.82510468 13 13v28c0 7.17489532-5.82510468 13-13 13h-28c-7.17489532 0-13-5.82510468-13-13v-28c0-7.17489532 5.82510468-13 13-13z"/>
    <mask id="mask-4" x="0" y="0" maskContentUnits="userSpaceOnUse" maskUnits="userSpaceOnUse">
      <rect width="322" height="469" x="0" y="0" fill="white"/>
      <use fill="black" xlink:href="#path-3"/>
    </mask>
    <path id="path-5" fill-rule="evenodd" d="M127 426h7c7.17489532 0 13 5.82510468 13 13v7c0 7.17489532-5.82510468 13-13 13h-7c-7.17489532 0-13-5.82510468-13-13v-7c0-7.17489532 5.82510468-13 13-13z"/>
    <mask id="mask-6" x="0" y="0" maskContentUnits="userSpaceOnUse" maskUnits="userSpaceOnUse">
      <rect width="322" height="469" x="0" y="0" fill="white"/>
      <use fill="black" xlink:href="#path-5"/>
    </mask>
  </defs>
  <g>
    <use fill-opacity="0" stroke="currentColor" stroke-linecap="butt" stroke-linejoin="miter" stroke-width="60" mask="url(#mask-2)" xlink:href="#path-1"/>
    <use fill-opacity="0" stroke="currentColor" stroke-linecap="butt" stroke-linejoin="miter" stroke-width="40" mask="url(#mask-4)" xlink:href="#path-3"/>
    <use fill-opacity="0" stroke="currentColor" stroke-linecap="butt" stroke-linejoin="miter" stroke-width="20" mask="url(#mask-6)" xlink:href="#path-5"/>
  </g>
</svg>
